# xmcd CD database file
#
# Track frame offsets:
#	150
#	21420
#	43206
#	63368
#	83048
#	100301
#	121469
#	139539
#	161643
#	183139
#	202335
#
# Disc length: 3368 seconds
#
# Revision: 0
# Processed by: cddbd v1.5.2PL0 Copyright (c) Steve Scherf et al.
# Submitted via: CDex 1.70beta2
#
DISCID=9a0d260b
DTITLE=Olivier Temime - The Intruder
DYEAR=2009
DGENRE=Jazz
TTITLE0=Purple Dream
TTITLE1=Remember El-Khobar
TTITLE2=The Macadam Turtle
TTITLE3=Red Castle Society
TTITLE4=Dancing with Gable
TTITLE5=The Congo PunQs
TTITLE6=Spirit of Ecstasy
TTITLE7=Big Eyes
TTITLE8=A Night With Boubou Crew
TTITLE9=Eating Pumpkins With Paco
TTITLE10=Song Fot Mistinga
EXTD=YEAR: 2009
EXTT0=
EXTT1=
EXTT2=
EXTT3=
EXTT4=
EXTT5=
EXTT6=
EXTT7=
EXTT8=
EXTT9=
EXTT10=
PLAYORDER=
